<svg fill="#00f1a3" version="1.1" xmlns="http://www.w3.org/2000/svg" xmlns:xlink="http://www.w3.org/1999/xlink" x="0px" y="0px"
	 width="382.94px" height="381.39px" viewBox="0 0 382.94 381.39"
	 style="overflow:visible;enable-background:new 0 0 382.94 381.39;" xml:space="preserve">

<g>
	<defs>
		<rect id="SVGID_1_" x="0" y="0" width="382.94" height="381.39"/>
	</defs>
	<clipPath id="SVGID_2_">
		<use xlink:href="#SVGID_1_"  style="overflow:visible;"/>
	</clipPath>
	<path class="st0" d="M300.77,150.45c-0.56,83.07-66.47,147.77-145.66,150.13C68.73,303.16,1.19,233.68,0.02,152.95
		C-1.21,68.58,66.13,2.46,145.37,0.07C232.26-2.55,300.75,67.46,300.77,150.45 M150.2,29.85C83.49,30.4,29.62,84.59,30,150.76
		c0.38,66.39,54.48,120.29,120.51,119.97c66.36-0.32,120.47-53.41,120.17-120.77C270.37,82.66,216.79,30.57,150.2,29.85"/>
	<path class="st0" d="M293.58,256.59c8.44,0.71,16.28,3.08,22.31,9.06c19.88,19.68,39.93,39.22,59.11,59.57
		c11.76,12.47,10.01,33.2-2.35,45.8c-12.07,12.31-32.42,14.05-45.46,3.12c-8.27-6.93-15.68-14.89-23.38-22.5
		c-11.49-11.36-23.02-22.69-34.29-34.26c-19.8-20.35-11.98-51.62,14.74-59.21C287.28,257.3,290.48,257.1,293.58,256.59"/>
</g>
</svg>
